<svg width="24" height="24" viewBox="0 0 24 24" fill="none" xmlns="http://www.w3.org/2000/svg">
<g id="Capa_1">
<g clip-path="url(#clip0_1406_1189)">
<g id="Group">
<g id="Group_2">
<path id="Vector" d="M9.89062 0V5.625H14.1094V0H9.89062ZM12.7031 4.21875H11.2969V1.40625H12.7031V4.21875Z" fill="white"/>
</g>
</g>
<g id="Group_3">
<g id="Group_4">
<path id="Vector_2" d="M5.00656 2.02319L2.02344 5.00632L6.00092 8.9838L8.98405 6.00068L5.00656 2.02319ZM4.01216 5.00632L5.00656 4.01196L6.99533 6.00068L6.00092 6.99508L4.01216 5.00632Z" fill="white"/>
</g>
</g>
<g id="Group_5">
<g id="Group_6">
<path id="Vector_3" d="M0 9.89062V14.1094H5.625V9.89062H0ZM4.21875 12.7031H1.40625V11.2969H4.21875V12.7031Z" fill="white"/>
</g>
</g>
<g id="Group_7">
<g id="Group_8">
<path id="Vector_4" d="M6.00092 15.0164L2.02344 18.9938L5.00656 21.977L8.98405 17.9995L6.00092 15.0164ZM4.01216 18.9938L6.00092 17.0051L6.99533 17.9995L5.00656 19.9882L4.01216 18.9938Z" fill="white"/>
</g>
</g>
<g id="Group_9">
<g id="Group_10">
<path id="Vector_5" d="M9.89062 18.375V24H14.1094V18.375H9.89062ZM12.7031 22.5938H11.2969V19.7812H12.7031V22.5938Z" fill="white"/>
</g>
</g>
<g id="Group_11">
<g id="Group_12">
<path id="Vector_6" d="M17.9997 15.0161L15.0166 17.9992L18.9941 21.9767L21.9772 18.9936L17.9997 15.0161ZM18.994 19.988L17.0053 17.9993L17.9997 17.0049L19.9884 18.9936L18.994 19.988Z" fill="white"/>
</g>
</g>
<g id="Group_13">
<g id="Group_14">
<path id="Vector_7" d="M18.375 9.89062V14.1094H24V9.89062H18.375ZM22.5938 12.7031H19.7812V11.2969H22.5938V12.7031Z" fill="white"/>
</g>
</g>
</g>
</g>
<defs>
<clipPath id="clip0_1406_1189">
<rect width="24" height="24" rx="4" fill="white"/>
</clipPath>
</defs>
</svg>
