<svg width="40" height="40" viewBox="0 0 40 40" fill="none" xmlns="http://www.w3.org/2000/svg">
<g id="Group 2">
<rect id="Rectangle 17" width="40" height="40" rx="4" fill="#EE6611"/>
<g id="Group">
<path id="Vector" d="M9.2 11V9.2H11H11.2V9V8V7.8H11H8H7.8V8V11V11.2H8H9H9.2V11Z" fill="white" stroke="white" stroke-width="0.4"/>
<path id="Vector_2" d="M11.2 31V30.8H11H9.2V29V28.8H9H8H7.8V29V32V32.2H8H11H11.2V32V31Z" fill="white" stroke="white" stroke-width="0.4"/>
<path id="Vector_3" d="M9.2 13V12.8H9H8H7.8V13V15V15.2H8H9H9.2V15V13Z" fill="white" stroke="white" stroke-width="0.4"/>
<path id="Vector_4" d="M9.2 17V16.8H9H8H7.8V17V19V19.2H8H9H9.2V19V17Z" fill="white" stroke="white" stroke-width="0.4"/>
<path id="Vector_5" d="M9.2 21V20.8H9H8H7.8V21V23V23.2H8H9H9.2V23V21Z" fill="white" stroke="white" stroke-width="0.4"/>
<path id="Vector_6" d="M9.2 25V24.8H9H8H7.8V25V27V27.2H8H9H9.2V27V25Z" fill="white" stroke="white" stroke-width="0.4"/>
<path id="Vector_7" d="M30.8 29V30.8H29H28.8V31V32V32.2H29H32H32.2V32V29V28.8H32H31H30.8V29Z" fill="white" stroke="white" stroke-width="0.4"/>
<path id="Vector_8" d="M28.8 9V9.2H29H30.8V11V11.2H31H32H32.2V11V8V7.8H32H29H28.8V8V9Z" fill="white" stroke="white" stroke-width="0.4"/>
<path id="Vector_9" d="M32.2 25V24.8H32H31H30.8V25V27V27.2H31H32H32.2V27V25Z" fill="white" stroke="white" stroke-width="0.4"/>
<path id="Vector_10" d="M32.2 21V20.8H32H31H30.8V21V23V23.2H31H32H32.2V23V21Z" fill="white" stroke="white" stroke-width="0.4"/>
<path id="Vector_11" d="M32.2 17V16.8H32H31H30.8V17V19V19.2H31H32H32.2V19V17Z" fill="white" stroke="white" stroke-width="0.4"/>
<path id="Vector_12" d="M32.2 13V12.8H32H31H30.8V13V15V15.2H31H32H32.2V15V13Z" fill="white" stroke="white" stroke-width="0.4"/>
<path id="Vector_13" d="M27.2 8V7.8H27H25H24.8V8V9V9.2H25H27H27.2V9V8Z" fill="white" stroke="white" stroke-width="0.4"/>
<path id="Vector_14" d="M23.2 8V7.8H23H21H20.8V8V9V9.2H21H23H23.2V9V8Z" fill="white" stroke="white" stroke-width="0.4"/>
<path id="Vector_15" d="M19.2 8V7.8H19H17H16.8V8V9V9.2H17H19H19.2V9V8Z" fill="white" stroke="white" stroke-width="0.4"/>
<path id="Vector_16" d="M15.2 8V7.8H15H13H12.8V8V9V9.2H13H15H15.2V9V8Z" fill="white" stroke="white" stroke-width="0.4"/>
<path id="Vector_17" d="M15.2 31V30.8H15H13H12.8V31V32V32.2H13H15H15.2V32V31Z" fill="white" stroke="white" stroke-width="0.4"/>
<path id="Vector_18" d="M19.2 31V30.8H19H17H16.8V31V32V32.2H17H19H19.2V32V31Z" fill="white" stroke="white" stroke-width="0.4"/>
<path id="Vector_19" d="M23.2 31V30.8H23H21H20.8V31V32V32.2H21H23H23.2V32V31Z" fill="white" stroke="white" stroke-width="0.4"/>
<path id="Vector_20" d="M27.2 31V30.8H27H25H24.8V31V32V32.2H25H27H27.2V32V31Z" fill="white" stroke="white" stroke-width="0.4"/>
</g>
</g>
</svg>
